<?xml version="1.0" standalone="no"?>
<!DOCTYPE svg PUBLIC "-//W3C//DTD SVG 20010904//EN"
 "http://www.w3.org/TR/2001/REC-SVG-20010904/DTD/svg10.dtd">
<svg version="1.0" xmlns="http://www.w3.org/2000/svg"
 width="348.000000pt" height="407.000000pt" viewBox="0 0 348.000000 407.000000"
 preserveAspectRatio="xMidYMid meet">
<metadata>
Created by potrace 1.16, written by Peter Selinger 2001-2019
</metadata>
<g transform="translate(0.000000,407.000000) scale(0.100000,-0.100000)"
fill="#000000" stroke="none">
<path d="M1220 3700 l0 -90 65 0 65 0 0 90 0 90 -65 0 -65 0 0 -90z"/>
<path d="M1468 3364 l-3 -186 -49 61 c-109 135 -267 219 -430 227 l-91 5 69
-27 c147 -56 295 -168 381 -289 171 -239 213 -542 124 -897 -10 -42 -19 -79
-19 -83 0 -3 33 -41 73 -83 39 -43 100 -108 135 -146 58 -64 64 -68 80 -53 10
9 44 29 77 44 53 25 71 28 160 28 92 0 105 -3 168 -32 184 -87 301 -297 284
-511 -6 -74 -37 -186 -57 -206 -19 -19 -9 -35 80 -138 132 -150 188 -252 210
-380 30 -170 -70 -363 -227 -436 -50 -23 -71 -27 -151 -27 l-94 0 39 -17 c45
-20 147 -23 207 -6 120 34 252 166 298 298 23 64 23 74 23 500 l0 435 -62 3
-63 3 0 -213 c-1 -238 6 -226 -67 -127 -18 24 -42 56 -53 70 l-22 26 24 74
c19 62 23 95 22 199 0 143 -15 198 -84 308 l-40 63 0 360 0 359 -65 0 -65 0 0
-300 c0 -165 -3 -300 -6 -300 -3 0 -18 8 -32 18 -15 10 -46 26 -69 37 l-43 18
0 314 0 313 -65 0 -65 0 0 -300 0 -300 -75 0 -75 0 0 310 0 310 -65 0 -65 0 0
-297 0 -298 -70 70 -69 70 19 68 c40 145 45 361 10 511 -5 23 -10 197 -10 389
l0 347 -65 0 -65 0 -2 -186z"/>
<path d="M977 3289 c-33 -19 -57 -88 -57 -163 0 -99 23 -182 92 -326 62 -132
197 -345 210 -332 23 23 51 213 52 347 1 149 -9 209 -51 304 -56 129 -176 211
-246 170z"/>
<path d="M1722 2983 l3 -88 63 -3 62 -3 0 91 0 90 -65 0 -66 0 3 -87z"/>
<path d="M2280 2840 l0 -140 65 0 65 0 0 140 0 140 -65 0 -65 0 0 -140z"/>
<path d="M813 2868 c-18 -22 -99 -210 -121 -278 -143 -445 -107 -901 103
-1308 227 -440 630 -756 1114 -873 46 -11 85 -18 87 -16 2 2 -1 18 -7 36 -6
17 -9 64 -7 105 3 59 8 81 31 114 93 141 321 94 398 -82 29 -66 32 -179 6
-219 -21 -32 -18 -33 31 -8 50 26 94 74 128 141 25 49 28 66 29 150 0 70 -5
107 -18 140 -35 87 -113 195 -219 305 l-48 50 -78 -75 c-138 -133 -263 -189
-438 -197 -146 -7 -290 36 -421 125 -226 155 -335 387 -334 717 0 197 35 406
100 600 11 33 21 66 21 73 0 7 -37 55 -81 105 -109 123 -163 200 -219 313 -35
70 -50 91 -57 82z"/>
<path d="M2512 2303 l3 -88 63 -3 62 -3 0 91 0 90 -65 0 -66 0 3 -87z"/>
<path d="M1380 1963 c-54 -170 -73 -280 -73 -438 0 -147 10 -198 57 -299 111
-239 433 -356 671 -243 72 35 175 120 206 171 l18 29 -132 146 c-73 80 -155
171 -183 201 -28 30 -71 77 -96 105 l-46 50 -22 -20 c-62 -57 -106 -186 -89
-263 20 -89 76 -162 151 -197 26 -12 45 -25 41 -29 -3 -3 -31 -6 -60 -6 -200
0 -342 280 -256 505 17 43 50 101 87 150 7 9 -24 49 -103 136 -62 68 -116 125
-121 127 -5 2 -27 -54 -50 -125z"/>
<path d="M2630 1690 l0 -140 65 0 66 0 -3 138 -3 137 -62 3 -63 3 0 -141z"/>
<path d="M1913 1744 c-12 -3 -26 -11 -32 -17 -10 -13 -10 -13 133 -167 164
-175 261 -283 264 -291 18 -49 56 81 50 170 -6 79 -32 135 -95 202 -64 68
-136 101 -226 105 -40 1 -82 0 -94 -2z"/>
</g>
</svg>
